<svg width="512" height="512" viewBox="0 0 64 64" fill="none" xmlns="http://www.w3.org/2000/svg">
  <rect width="64" height="64" rx="14" fill="#D98232"/>
  <g fill="#fff">
    <ellipse cx="16.9" cy="31.1" rx="4.4" ry="6.0" transform="rotate(-22 16.9 31.1)"/>
    <ellipse cx="26.3" cy="20.6" rx="4.8" ry="6.9" transform="rotate(-8 26.3 20.6)"/>
    <ellipse cx="37.7" cy="20.6" rx="4.8" ry="6.9" transform="rotate(8 37.7 20.6)"/>
    <ellipse cx="47.1" cy="31.1" rx="4.4" ry="6.0" transform="rotate(22 47.1 31.1)"/>
    <path d="M32 33C41 33 48 39 48 46C48 52 43 55 38 57.5C35.5 58.7 34 59.5 32 59.5C30 59.5 28.5 58.7 26 57.5C21 55 16 52 16 46C16 39 23 33 32 33Z"/>
  </g>
</svg>
